<svg xmlns="http://www.w3.org/2000/svg" viewBox="0 -0.5 18 18" shape-rendering="crispEdges">
<metadata>Made with Pixels to Svg https://codepen.io/shshaw/pen/XbxvNj</metadata>
<path stroke="#373737" d="M4 0h2M3 1h1M6 1h2M9 1h5M3 2h1M8 2h1M14 2h2M3 3h1M2 4h1M2 5h1M2 6h1M2 7h1M1 8h1M1 9h1M1 10h1M1 11h1" />
<path stroke="#306030" d="M4 1h1M7 2h1M9 2h1M8 3h1M15 3h1M8 4h1M8 5h1M7 6h1M7 7h1M7 8h1M7 9h1M3 10h1M7 10h1M4 11h1M6 11h1M6 12h1M5 13h2M7 14h6" />
<path stroke="#f8f8f8" d="M5 1h1M6 2h1M10 2h4M14 3h1" />
<path stroke="#56ad56" d="M4 2h1M3 4h1M15 4h1M3 5h1M15 5h1M3 6h1M14 6h1M14 7h1M2 8h1M14 8h1M2 9h1M14 9h1M2 10h1M14 10h1M2 11h2M13 11h1M4 12h1M13 12h1M13 13h1M5 14h1M13 14h1M7 15h7" />
<path stroke="#eaeaea" d="M5 2h1M4 3h4M9 3h5M4 4h4M9 4h5M4 5h4M9 5h5M4 6h3M8 6h5M3 7h4M8 7h5M3 8h4M8 8h5M4 9h3M8 9h5M5 10h2M8 10h5M5 11h1M7 11h5M7 12h5" />
<path stroke="#161616" d="M16 3h1M16 4h1M16 5h1M15 6h1M15 7h1M15 8h1M15 9h1M15 10h1M14 11h1M2 12h2M14 12h1M4 13h1M14 13h1M4 14h1M14 14h1M5 15h1M14 15h1M6 16h8" />
<path stroke="#b4b4b4" d="M14 4h1M13 6h1M13 9h1M13 10h1M12 11h1" />
<path stroke="#969696" d="M14 5h1M13 7h1M13 8h1M12 12h1M12 13h1" />
<path stroke="#d5d5d5" d="M3 9h1M4 10h1M5 12h1M7 13h5" />
<path stroke="#499349" d="M6 14h1M6 15h1" />
</svg>