<?xml version="1.0" encoding="utf-8"?>
<!-- Generator: Adobe Illustrator 23.0.5, SVG Export Plug-In . SVG Version: 6.00 Build 0)  -->
<svg version="1.1" id="Layer_3" xmlns="http://www.w3.org/2000/svg" xmlns:xlink="http://www.w3.org/1999/xlink" x="0px" y="0px"
	 viewBox="0 0 800 1050" style="enable-background:new 0 0 800 1050;" xml:space="preserve">
<style type="text/css">
	.st0{fill:#2D2D2D;stroke:#2D2D2D;stroke-width:23;stroke-miterlimit:10;}
	.st1{fill:#595959;stroke:#2D2D2D;stroke-width:23;stroke-miterlimit:10;}
	.st2{fill:#5A5A5A;}
	.st3{fill:#008CE2;}
</style>
<path class="st0" d="M765.5,1034l-730,0c-11.05,0-20-8.95-20-20l0-970.5c0-11.05,8.95-20,20-20l730,0c11.05,0,20,8.95,20,20l0,970.5
	C785.5,1025.05,776.55,1034,765.5,1034z"/>
<path class="st1" d="M752,880.5l-703,0c-18.5,0-33.5-15-33.5-33.5l0-791.02c0-18.5,15-33.5,33.5-33.5l703,0
	c18.5,0,33.5,15,33.5,33.5l0,791.02C785.5,865.5,770.5,880.5,752,880.5z"/>
<circle class="st2" cx="136.5" cy="958.5" r="55"/>
<circle class="st3" cx="285" cy="959" r="55"/>
</svg>
