<svg xmlns="http://www.w3.org/2000/svg" viewBox="0 -0.5 18 18" shape-rendering="crispEdges">
<metadata>Made with Pixels to Svg https://codepen.io/shshaw/pen/XbxvNj</metadata>
<path stroke="#373737" d="M3 1h5M10 1h5M1 2h2M8 2h2M15 2h2M0 3h1M0 4h1M0 5h1M0 6h1M0 7h1M0 8h1M0 9h1M0 10h1M0 11h1M0 12h1M0 13h1M0 14h1M0 15h1" />
<path stroke="#f8f8f8" d="M3 2h4M11 2h4M2 3h1M15 3h1" />
<path stroke="#306030" d="M7 2h1M10 2h1M1 3h1M8 3h2M16 3h1M8 4h2M8 5h2M8 6h2M8 7h2M8 8h2M8 9h2M8 10h2M8 11h2M8 12h2M8 13h2M2 14h6M10 14h6" />
<path stroke="#eaeaea" d="M3 3h5M10 3h5M2 4h6M10 4h6M2 5h6M10 5h6M2 6h6M10 6h6M2 7h6M10 7h6M2 8h6M10 8h6M2 9h6M10 9h6M2 10h6M10 10h6M2 11h6M10 11h6M2 12h6M10 12h6M2 13h1M15 13h1" />
<path stroke="#161616" d="M17 3h1M17 4h1M17 5h1M17 6h1M17 7h1M17 8h1M17 9h1M17 10h1M17 11h1M17 12h1M17 13h1M17 14h1M17 15h1M1 16h16" />
<path stroke="#56ad56" d="M1 4h1M16 4h1M1 5h1M16 5h1M1 6h1M16 6h1M1 7h1M16 7h1M1 8h1M16 8h1M1 9h1M16 9h1M1 10h1M16 10h1M1 11h1M16 11h1M1 12h1M16 12h1M1 13h1M16 13h1M1 14h1M16 14h1M1 15h7M10 15h7" />
<path stroke="#d5d5d5" d="M3 13h5M10 13h5" />
<path stroke="#499349" d="M8 14h2M8 15h2" />
</svg>