<svg xmlns="http://www.w3.org/2000/svg" viewBox="0 -0.5 18 18" shape-rendering="crispEdges">
<metadata>Made with Pixels to Svg https://codepen.io/shshaw/pen/XbxvNj</metadata>
<path stroke="#373737" d="M9 2h3M7 3h2M12 3h1M5 4h2M13 4h1M3 5h2M14 5h1M1 6h2M15 6h1M1 7h1M1 8h1M1 9h1M1 10h1" />
<path stroke="#52a552" d="M9 3h1M11 3h1M12 4h1M7 5h1M11 5h1M4 6h1M8 6h1M4 7h1M7 7h1M14 7h1M9 8h1M12 8h1M8 9h1" />
<path stroke="#56ad56" d="M10 3h1M7 4h2M10 4h2M5 5h2M12 5h2M3 6h1M5 6h3M10 6h1M13 6h2M3 7h1M6 7h1M8 7h2M12 7h2M4 8h2M7 8h2M10 8h2M6 9h1M9 9h2M6 10h1M8 10h1" />
<path stroke="#306030" d="M9 4h1M9 5h2M11 6h2M5 7h1M11 7h1M6 8h1M7 9h1" />
<path stroke="#499349" d="M8 5h1M9 6h1M10 7h1M5 9h1M7 10h1" />
<path stroke="#3d7a3d" d="M2 7h1M2 8h2M2 9h1M4 9h1M2 10h1M5 10h1M3 11h1M6 11h1M4 12h1M5 13h1M6 14h1" />
<path stroke="#1b361b" d="M15 7h1M13 8h2M11 9h2M9 10h2M15 10h1M7 11h2M13 11h2M11 12h2M9 13h2M7 14h2" />
<path stroke="#161616" d="M16 7h1M16 8h1M16 9h1M16 10h1M2 11h1M15 11h2M3 12h1M13 12h2M4 13h1M11 13h2M5 14h1M9 14h2M6 15h3" />
<path stroke="#b4b4b4" d="M15 8h1M3 9h1M14 9h1M4 10h1M11 10h1M13 10h1M5 11h1M9 11h1M12 11h1M6 12h3M10 12h1" />
<path stroke="#969696" d="M13 9h1M15 9h1M12 10h1M14 10h1M10 11h2M9 12h1M7 13h2" />
<path stroke="#d5d5d5" d="M3 10h1M4 11h1M5 12h1M6 13h1" />
</svg>