<svg xmlns="http://www.w3.org/2000/svg" viewBox="0 -0.5 18 18" shape-rendering="crispEdges">
<metadata>Made with Pixels to Svg https://codepen.io/shshaw/pen/XbxvNj</metadata>
<path stroke="#373737" d="M9 2h4M8 3h1M13 3h2M7 4h1M15 4h1M6 5h1M5 6h1M4 7h1M3 8h1M2 9h1M1 10h1M1 11h1" />
<path stroke="#52a552" d="M9 3h1M12 3h1M11 4h1M13 4h2M8 5h1M5 7h1M5 8h1M9 8h1M9 9h1" />
<path stroke="#56ad56" d="M10 3h2M8 4h1M12 4h1M7 5h1M9 5h1M12 5h2M6 6h3M10 6h1M12 6h1M7 7h3M4 8h1M6 8h1M10 8h1M6 9h1M8 9h1M8 10h1" />
<path stroke="#306030" d="M9 4h2M10 5h2M11 6h1M6 7h1M7 8h2" />
<path stroke="#1b361b" d="M14 5h1M13 6h1M12 7h1M11 8h1M10 9h1M15 9h1M9 10h1M8 11h1M14 11h1M12 12h1M11 13h1M10 14h1M9 15h1" />
<path stroke="#499349" d="M9 6h1M10 7h2M7 9h1" />
<path stroke="#eaeaea" d="M14 6h1M13 7h2M12 8h2M11 9h2M5 10h1M10 10h2M6 11h2M9 11h2" />
<path stroke="#161616" d="M15 6h1M16 7h1M16 8h1M16 9h1M15 10h2M15 11h1M2 12h1M13 12h1M3 13h1M12 13h1M4 14h2M11 14h1M6 15h2M10 15h1M8 16h2" />
<path stroke="#969696" d="M15 7h1M14 8h1M13 9h2M12 10h1M11 11h1M10 12h1M9 13h2M9 14h1" />
<path stroke="#b4b4b4" d="M15 8h1M3 10h1M13 10h2M3 11h3M12 11h2M7 12h1M9 12h1M11 12h1M8 13h1" />
<path stroke="#3d7a3d" d="M3 9h3M2 10h1M6 10h2M2 11h1M3 12h1M4 13h2M6 14h2M8 15h1" />
<path stroke="#d5d5d5" d="M4 10h1M4 12h3M8 12h1M6 13h2M8 14h1" />
</svg>