<svg xmlns="http://www.w3.org/2000/svg" viewBox="0 -0.5 18 18" shape-rendering="crispEdges">
<metadata>Made with Pixels to Svg https://codepen.io/shshaw/pen/XbxvNj</metadata>
<path stroke="#373737" d="M8 0h2M7 1h1M10 1h1M6 2h1M5 3h1M11 3h2M5 4h1M13 4h2M4 5h1M4 6h1M3 7h1M3 8h1M3 9h1M3 10h1M2 11h1M2 12h1M2 13h1M3 14h1M4 15h2" />
<path stroke="#52a552" d="M8 1h2M6 4h1M8 4h1M6 6h2M4 7h1M5 9h2" />
<path stroke="#56ad56" d="M7 2h1M9 2h1M6 3h1M7 4h1M5 5h3M5 6h1M6 7h1M4 8h1M4 9h1" />
<path stroke="#306030" d="M8 2h1M7 3h1M5 7h1M6 8h1M4 11h2M4 12h1" />
<path stroke="#1b361b" d="M10 2h1M9 3h1M9 4h1M8 5h1M8 6h1M7 7h1M7 8h1M7 9h1M14 10h1M13 12h1M11 15h2" />
<path stroke="#499349" d="M8 3h1M5 8h1" />
<path stroke="#eaeaea" d="M10 3h1M10 4h3M9 5h5M9 6h4M8 7h5M8 8h5M8 9h5M7 10h5M6 11h6M5 12h6M8 13h3" />
<path stroke="#969696" d="M14 5h1M13 7h1M13 8h2M14 9h1M13 10h1M12 11h1M11 12h1M11 13h1M12 14h1" />
<path stroke="#161616" d="M15 5h1M15 6h1M15 7h1M15 8h1M15 9h1M15 10h1M14 11h1M14 12h1M13 13h1M13 14h1M13 15h1M6 16h7" />
<path stroke="#b4b4b4" d="M13 6h2M14 7h1M13 9h1M12 10h1M13 11h1M12 12h1M4 13h1M6 13h2M12 13h1M7 14h1M9 14h3M10 15h1" />
<path stroke="#3d7a3d" d="M4 10h3M3 11h1M3 12h1M3 13h1M4 14h2M6 15h1" />
<path stroke="#d5d5d5" d="M5 13h1M6 14h1M8 14h1M7 15h3" />
</svg>