<svg xmlns="http://www.w3.org/2000/svg" viewBox="0 -0.5 16 16" shape-rendering="crispEdges">
<metadata>Made with Pixels to Svg https://codepen.io/shshaw/pen/XbxvNj</metadata>
<path stroke="#a05b23" d="M5 1h6M4 2h1M11 2h1M1 8h4M11 8h4M1 9h1M4 10h1M11 10h1M4 11h1M5 12h6" />
<path stroke="#eadb84" d="M5 2h6M5 3h1M10 3h1M8 4h1M8 7h1M7 8h2M2 9h1M5 9h1M8 10h2M5 11h1" />
<path stroke="#85400f" d="M4 3h1M11 3h1M4 4h1M11 4h1M4 5h1M11 5h1M4 6h1M11 6h1M4 7h1M11 7h1M5 8h1M10 8h1M4 9h1M11 9h1M14 9h1M2 10h2M12 10h2M11 11h1M4 12h1M11 12h1M5 13h1M10 13h1M5 14h1M10 14h1M6 15h4" />
<path stroke="#fdfbee" d="M6 3h2M5 5h1M9 5h1M7 6h1M6 10h1" />
<path stroke="#f8eea5" d="M8 3h2M7 4h1M8 6h1M7 7h1M5 10h1M7 10h1" />
<path stroke="#d1a75d" d="M5 4h2M9 4h2M7 5h2M6 7h1M9 7h1M3 9h1M6 9h1M9 9h1M13 9h1M10 10h1M6 11h4M6 13h1M6 14h1M9 14h1" />
<path stroke="#41e67f" d="M6 5h1M10 5h1M5 6h1M9 6h1" />
<path stroke="#00bb46" d="M6 6h1M10 6h1" />
<path stroke="#c58742" d="M5 7h1M10 7h1M6 8h1M9 8h1M7 9h2M10 9h1M12 9h1M10 11h1M7 13h3M7 14h2" />
</svg>