<svg xmlns="http://www.w3.org/2000/svg" viewBox="0 -0.5 40 30" shape-rendering="crispEdges">
<metadata>Made with Pixels to Svg https://codepen.io/shshaw/pen/XbxvNj</metadata>
<path stroke="#0d001b" d="M1 0h38M0 1h1M39 1h1M0 2h1M2 2h36M39 2h1M0 3h1M2 3h36M39 3h1M0 4h1M2 4h36M39 4h1M0 5h1M2 5h36M39 5h1M0 6h1M2 6h36M39 6h1M0 7h1M2 7h36M39 7h1M0 8h1M2 8h36M39 8h1M0 9h1M2 9h36M39 9h1M0 10h1M2 10h36M39 10h1M0 11h1M2 11h36M39 11h1M0 12h1M2 12h36M39 12h1M0 13h1M2 13h36M39 13h1M0 14h1M2 14h36M39 14h1M0 15h1M2 15h36M39 15h1M0 16h1M2 16h36M39 16h1M0 17h1M2 17h36M39 17h1M0 18h1M2 18h36M39 18h1M0 19h1M2 19h36M39 19h1M0 20h1M2 20h36M39 20h1M0 21h1M2 21h36M39 21h1M0 22h1M2 22h36M39 22h1M0 23h1M2 23h36M39 23h1M0 24h1M2 24h36M39 24h1M0 25h1M2 25h36M39 25h1M0 26h1M2 26h36M39 26h1M0 27h1M2 27h36M39 27h1M0 28h1M39 28h1M1 29h38" />
<path stroke="#25015b" d="M1 1h38" />
<path stroke="#25015a" d="M1 2h1M38 2h1" />
<path stroke="#240159" d="M1 3h1M38 3h1" />
<path stroke="#240158" d="M1 4h1M38 4h1" />
<path stroke="#240157" d="M1 5h1M38 5h1" />
<path stroke="#230156" d="M1 6h1M38 6h1" />
<path stroke="#230154" d="M1 7h1M38 7h1" />
<path stroke="#220153" d="M1 8h1M38 8h1" />
<path stroke="#220151" d="M1 9h1M38 9h1" />
<path stroke="#210150" d="M1 10h1M38 10h1" />
<path stroke="#21014e" d="M1 11h1M38 11h1" />
<path stroke="#20014c" d="M1 12h1M38 12h1" />
<path stroke="#20014b" d="M1 13h1M38 13h1" />
<path stroke="#1f0149" d="M1 14h1M38 14h1" />
<path stroke="#1f0147" d="M1 15h1M38 15h1" />
<path stroke="#1e0145" d="M1 16h1M38 16h1" />
<path stroke="#1d0143" d="M1 17h1M38 17h1" />
<path stroke="#1d0142" d="M1 18h1M38 18h1" />
<path stroke="#1c0140" d="M1 19h1M38 19h1" />
<path stroke="#1c013e" d="M1 20h1M38 20h1" />
<path stroke="#1b013d" d="M1 21h1M38 21h1" />
<path stroke="#1b013b" d="M1 22h1M38 22h1" />
<path stroke="#1a013a" d="M1 23h1M38 23h1" />
<path stroke="#1a0138" d="M1 24h1M38 24h1" />
<path stroke="#190137" d="M1 25h1M38 25h1" />
<path stroke="#190136" d="M1 26h1M38 26h1" />
<path stroke="#190135" d="M1 27h1M38 27h1" />
<path stroke="#180134" d="M1 28h38" />
</svg>