<?xml version="1.0" encoding="utf-8"?>
<!-- Generator: Adobe Illustrator 23.0.5, SVG Export Plug-In . SVG Version: 6.00 Build 0)  -->
<svg version="1.1" xmlns="http://www.w3.org/2000/svg" xmlns:xlink="http://www.w3.org/1999/xlink" x="0px" y="0px"
	 viewBox="0 0 1920 1080" style="enable-background:new 0 0 1920 1080;" xml:space="preserve">
<style type="text/css">
	.st0{display:none;}
	.st1{display:inline;fill:#383838;}
	.st2{fill:#FFFF71;}
	.st3{fill:#FFE171;}
	.st4{display:inline;fill:#967257;}
	.st5{display:inline;fill:#747575;}
	.st6{display:inline;fill:#888A89;}
	.st7{display:inline;fill:#AF8668;}
</style>
<g id="Layer_2" class="st0">
	<rect x="-56" y="-62" class="st1" width="2004" height="1174"/>
</g>
<g id="stick_note">
	<g>
		<g>
			<path class="st2" d="M634,71v500H184c-27.61,0-50-22.39-50-50V71H634z"/>
		</g>
		<path class="st3" d="M683.9,524c-1.54,26.21-23.3,47-49.9,47s-48.36-20.79-49.9-47H683.9z"/>
		<rect x="184" y="524" class="st3" width="450" height="47"/>
		<circle class="st2" cx="184" cy="521" r="50"/>
	</g>
</g>
<g id="Layer_3" class="st0">
	<path class="st4" d="M1343.5,498.78c-8.89,2.44-18.12,4.06-27.6,4.79c-3.76,0.28-7.56,0.43-11.4,0.43
		c-81.46,0-147.5-66.04-147.5-147.5S1223.04,209,1304.5,209c5.12,0,10.18,0.26,15.16,0.77c8.16,0.83,16.13,2.33,23.84,4.45
		c-62.54,17.1-108.5,74.32-108.5,142.28S1280.96,481.68,1343.5,498.78z"/>
	<path class="st5" d="M1633,357c0,126.88-94.53,231.69-217,247.83c-10.79,1.44-21.81,2.17-33,2.17c-13.27,0-26.29-1.03-39-3.03
		c25.48-3.98,49.69-11.82,72-22.9c82.38-40.89,139-125.87,139-224.07c0-0.98-0.01-1.95-0.02-2.92c-0.01-0.97-0.02-1.94-0.05-2.91
		c-0.06-2.76-0.17-5.52-0.32-8.26c-0.03-0.49-0.06-0.98-0.09-1.47c-0.07-1.21-0.15-2.41-0.25-3.61c-0.04-0.56-0.08-1.11-0.13-1.66
		c0-0.08-0.01-0.16-0.02-0.24c-0.12-1.45-0.25-2.89-0.39-4.33c-0.13-1.21-0.26-2.41-0.39-3.62c-0.11-0.88-0.21-1.76-0.33-2.64
		c-0.21-1.69-0.44-3.37-0.69-5.05c-0.1-0.7-0.21-1.41-0.32-2.11c-0.65-4.2-1.41-8.37-2.27-12.5c-0.19-0.88-0.37-1.76-0.57-2.64
		c-0.8-3.66-1.69-7.29-2.65-10.88c-0.43-1.61-0.87-3.2-1.33-4.79c-0.07-0.24-0.14-0.48-0.21-0.72c-0.25-0.84-0.5-1.68-0.76-2.53
		c-0.27-0.88-0.54-1.77-0.82-2.65c-0.22-0.68-0.43-1.36-0.65-2.03c-0.14-0.42-0.28-0.85-0.42-1.27c-0.22-0.66-0.44-1.31-0.67-1.97
		c-0.65-1.91-1.32-3.8-2.01-5.69c-0.51-1.38-1.03-2.76-1.57-4.13c-0.07-0.18-0.14-0.37-0.22-0.56c-0.33-0.86-0.67-1.71-1.02-2.56
		c-0.34-0.85-0.69-1.7-1.05-2.55c-0.62-1.51-1.27-3-1.92-4.49c-0.46-1.03-0.91-2.04-1.38-3.06c-0.38-0.84-0.77-1.67-1.16-2.49
		c-0.38-0.81-0.76-1.62-1.15-2.42c0-0.02-0.01-0.04-0.03-0.06c-0.4-0.82-0.8-1.64-1.21-2.46c-0.4-0.82-0.81-1.63-1.23-2.44
		c-0.41-0.81-0.83-1.62-1.26-2.43c-0.47-0.91-0.96-1.81-1.44-2.71c-0.82-1.51-1.65-3-2.49-4.48c-0.53-0.93-1.06-1.86-1.59-2.77
		c-0.39-0.65-0.77-1.3-1.16-1.95c-0.47-0.78-0.94-1.56-1.41-2.33c-0.47-0.77-0.95-1.55-1.44-2.32c-0.81-1.3-1.63-2.58-2.47-3.85
		c-0.3-0.47-0.6-0.93-0.91-1.38c-0.35-0.54-0.71-1.08-1.07-1.61c-0.51-0.76-1.02-1.52-1.55-2.27c-0.44-0.64-0.88-1.27-1.33-1.91
		c-1.23-1.76-2.49-3.49-3.77-5.21c-0.37-0.5-0.74-1-1.12-1.5c-0.58-0.78-1.18-1.56-1.78-2.33c-0.55-0.71-1.11-1.42-1.67-2.13
		s-1.12-1.42-1.69-2.12c-1.3-1.61-2.62-3.21-3.97-4.79c-1-1.18-2.01-2.35-3.03-3.5c-0.6-0.68-1.2-1.36-1.81-2.03
		c-1.41-1.57-2.84-3.13-4.31-4.66c-0.41-0.43-0.82-0.86-1.23-1.29c-0.62-0.66-1.25-1.31-1.89-1.95c-0.59-0.59-1.18-1.19-1.77-1.78
		c-1.41-1.41-2.83-2.79-4.27-4.15c-0.57-0.55-1.15-1.09-1.73-1.63c-1.32-1.24-2.65-2.46-4-3.66c-0.67-0.6-1.35-1.2-2.03-1.8
		c-1.09-0.95-2.18-1.89-3.28-2.81c-0.89-0.75-1.78-1.5-2.67-2.24c-0.89-0.73-1.78-1.45-2.68-2.15c-0.5-0.41-0.99-0.8-1.49-1.19
		c-0.82-0.65-1.65-1.29-2.48-1.92c-0.59-0.46-1.18-0.91-1.78-1.35c-2.55-1.93-5.14-3.8-7.76-5.61c-0.48-0.34-0.97-0.68-1.46-1.01
		c-2.5-1.71-5.04-3.38-7.61-5c-0.82-0.52-1.64-1.03-2.47-1.54c-0.45-0.28-0.91-0.56-1.36-0.83c-0.97-0.59-1.94-1.17-2.91-1.74
		c-0.21-0.13-0.42-0.25-0.64-0.37c-0.87-0.52-1.75-1.02-2.63-1.51c-0.4-0.24-0.81-0.47-1.22-0.7c-1.11-0.62-2.23-1.24-3.35-1.84
		c-1.17-0.64-2.35-1.26-3.53-1.88c-0.12-0.06-0.24-0.12-0.36-0.19c-1.28-0.66-2.58-1.32-3.88-1.96c-1.31-0.65-2.62-1.29-3.94-1.91
		c-1.32-0.63-2.65-1.25-3.99-1.85c-0.05-0.02-0.1-0.05-0.15-0.07c-1.14-0.52-2.29-1.02-3.44-1.52c-1.37-0.6-2.75-1.18-4.14-1.75
		c-0.6-0.25-1.2-0.5-1.8-0.73c-0.44-0.19-0.88-0.36-1.32-0.53c-0.66-0.27-1.33-0.53-2-0.79c-0.86-0.33-1.72-0.66-2.58-0.98
		c-0.56-0.21-1.12-0.42-1.68-0.62c-0.86-0.32-1.72-0.63-2.59-0.93c-1.41-0.5-2.82-0.99-4.24-1.46c-0.46-0.15-0.91-0.3-1.37-0.45
		c-1.07-0.35-2.14-0.7-3.22-1.03c-1.92-0.6-3.86-1.18-5.81-1.73c-0.73-0.21-1.47-0.42-2.2-0.62c-0.9-0.25-1.8-0.49-2.7-0.73
		c-0.88-0.23-1.77-0.46-2.66-0.68c-0.92-0.23-1.84-0.46-2.77-0.68c-0.86-0.21-1.73-0.41-2.6-0.61c-0.08-0.02-0.16-0.03-0.24-0.05
		c-1.79-0.41-3.58-0.79-5.39-1.16c-1.84-0.37-3.68-0.73-5.54-1.06c-0.67-0.12-1.34-0.24-2.02-0.36c-1.18-0.2-2.37-0.39-3.56-0.58
		c12.71-2,25.73-3.03,39-3.03c15.71,0,31.09,1.45,46,4.22C1545.1,132.81,1633,234.64,1633,357z"/>
	<path class="st5" d="M1416,576v28.83c-10.79,1.44-21.81,2.17-33,2.17h-78c-14.31,0-28.35-1.2-42-3.51V576H1416z"/>
	<path class="st5" d="M1429,111.22V131h-167v-20.32c13.97-2.42,28.34-3.68,43-3.68h78C1398.71,107,1414.09,108.45,1429,111.22z"/>
	<path class="st6" d="M1554.98,354.08c-0.01-0.97-0.02-1.94-0.05-2.91c-0.03-1.35-0.07-2.7-0.13-4.05c0-0.09,0-0.18-0.01-0.28
		c-0.05-1.31-0.11-2.62-0.18-3.93c-0.03-0.49-0.06-0.98-0.09-1.47c-0.01-0.09-0.01-0.18-0.02-0.27c-0.06-1.08-0.13-2.16-0.22-3.23
		c0-0.04-0.01-0.07-0.01-0.11c-0.04-0.56-0.08-1.11-0.13-1.66c0-0.08-0.01-0.16-0.02-0.24c-0.09-1.12-0.19-2.23-0.3-3.34
		c-0.03-0.33-0.06-0.66-0.09-0.99c-0.13-1.21-0.26-2.41-0.39-3.62c-0.11-0.88-0.21-1.76-0.33-2.64c-0.21-1.69-0.44-3.37-0.69-5.05
		c-0.1-0.71-0.21-1.41-0.32-2.11c-0.13-0.87-0.27-1.73-0.42-2.59c-0.2-1.23-0.41-2.46-0.64-3.69c-0.12-0.67-0.24-1.34-0.38-2.02
		c-0.08-0.44-0.16-0.88-0.25-1.33c-0.19-0.96-0.38-1.91-0.58-2.87c-0.19-0.88-0.37-1.76-0.57-2.64c-0.8-3.66-1.69-7.29-2.65-10.88
		c-0.43-1.61-0.87-3.2-1.33-4.79c-0.07-0.24-0.14-0.48-0.21-0.72c-0.25-0.84-0.5-1.68-0.76-2.53c-0.27-0.88-0.54-1.77-0.82-2.65
		c-0.22-0.68-0.43-1.36-0.65-2.03c-0.14-0.42-0.28-0.85-0.42-1.27c-0.22-0.66-0.44-1.31-0.67-1.97c-0.65-1.91-1.32-3.8-2.01-5.69
		c-0.51-1.38-1.03-2.76-1.57-4.13c-0.07-0.18-0.14-0.37-0.22-0.56c-0.33-0.86-0.67-1.71-1.02-2.56c-0.34-0.85-0.69-1.7-1.05-2.55
		c-0.62-1.51-1.27-3-1.92-4.49c-0.46-1.03-0.91-2.04-1.38-3.06c-0.38-0.84-0.77-1.67-1.16-2.49c-0.38-0.81-0.76-1.62-1.15-2.42
		c0-0.02-0.01-0.04-0.03-0.06c-0.4-0.82-0.8-1.64-1.21-2.46c-0.4-0.82-0.81-1.63-1.23-2.44c-0.41-0.81-0.83-1.62-1.26-2.43
		c-0.47-0.91-0.96-1.81-1.44-2.71c-0.82-1.51-1.65-3-2.49-4.48c-0.53-0.93-1.06-1.86-1.59-2.77c-0.39-0.65-0.77-1.3-1.16-1.95
		c-0.47-0.78-0.94-1.56-1.41-2.33c-0.47-0.77-0.95-1.55-1.44-2.32c-0.76-1.23-1.54-2.43-2.33-3.63c-0.04-0.07-0.09-0.15-0.14-0.22
		c-0.3-0.47-0.6-0.93-0.91-1.38c-0.35-0.54-0.71-1.08-1.07-1.61c-0.51-0.76-1.02-1.52-1.55-2.27c-0.44-0.64-0.88-1.27-1.33-1.91
		c-1.23-1.76-2.49-3.49-3.77-5.21c-0.37-0.5-0.74-1-1.12-1.5c-0.04-0.06-0.08-0.11-0.13-0.17c-0.54-0.72-1.09-1.44-1.65-2.16
		c-0.55-0.71-1.11-1.42-1.67-2.13s-1.12-1.42-1.69-2.12c-1.3-1.61-2.62-3.21-3.97-4.79c-1-1.18-2.01-2.35-3.03-3.5
		c-0.6-0.68-1.2-1.36-1.81-2.03c-0.6-0.67-1.2-1.33-1.82-2c-0.45-0.48-0.89-0.96-1.34-1.44c-0.38-0.41-0.76-0.82-1.15-1.22
		c-0.41-0.43-0.82-0.86-1.23-1.29c-0.62-0.66-1.25-1.31-1.89-1.95c-0.59-0.59-1.18-1.19-1.77-1.78c-1.41-1.41-2.83-2.79-4.27-4.15
		c-0.57-0.55-1.15-1.09-1.73-1.63c-1.32-1.24-2.65-2.46-4-3.66c-0.67-0.6-1.35-1.2-2.03-1.8c-1.09-0.95-2.18-1.89-3.28-2.81
		c-0.89-0.76-1.78-1.5-2.67-2.24c-0.09-0.07-0.17-0.14-0.26-0.21c-0.58-0.47-1.17-0.94-1.75-1.41c-0.22-0.18-0.45-0.36-0.67-0.53
		c-0.5-0.41-0.99-0.8-1.49-1.19c-0.82-0.65-1.65-1.29-2.48-1.92c-0.59-0.46-1.18-0.91-1.78-1.35c-2.55-1.93-5.14-3.8-7.76-5.61
		c-0.48-0.34-0.97-0.68-1.46-1.01c-1.25-0.85-2.51-1.7-3.78-2.53c-1.27-0.84-2.55-1.66-3.83-2.47c-0.82-0.52-1.64-1.04-2.47-1.54
		c-0.45-0.28-0.91-0.56-1.36-0.83c-0.96-0.59-1.93-1.17-2.91-1.74c-0.21-0.13-0.42-0.25-0.64-0.37c-0.87-0.52-1.75-1.02-2.63-1.51
		c-0.4-0.24-0.81-0.47-1.22-0.7c-1.11-0.62-2.23-1.24-3.35-1.84c-1.17-0.64-2.35-1.26-3.53-1.88c-0.12-0.06-0.24-0.12-0.36-0.19
		c-0.17-0.09-0.35-0.18-0.52-0.26c-1.12-0.57-2.23-1.14-3.36-1.7c-0.65-0.33-1.31-0.65-1.96-0.96c-0.66-0.32-1.32-0.63-1.98-0.95
		c-1.33-0.63-2.66-1.25-3.99-1.85c-0.05-0.02-0.1-0.05-0.15-0.07c-1.14-0.52-2.29-1.02-3.44-1.52c-0.53-0.23-1.07-0.46-1.6-0.69
		c-0.84-0.36-1.69-0.71-2.54-1.06c-0.6-0.25-1.2-0.5-1.8-0.73c-0.44-0.19-0.88-0.36-1.32-0.53c-0.66-0.27-1.33-0.53-2-0.79
		c-0.86-0.33-1.72-0.66-2.58-0.98c-0.56-0.21-1.12-0.42-1.68-0.62c-0.86-0.32-1.72-0.63-2.59-0.93c-1.41-0.5-2.82-0.99-4.24-1.46
		c-0.46-0.15-0.91-0.3-1.37-0.45c-1.07-0.35-2.14-0.69-3.22-1.03c-1.09-0.34-2.2-0.68-3.3-1c-0.84-0.25-1.67-0.49-2.51-0.73
		c-0.73-0.21-1.47-0.42-2.2-0.62c-0.9-0.25-1.8-0.49-2.7-0.73c-0.88-0.23-1.77-0.46-2.66-0.68c-0.92-0.23-1.84-0.46-2.77-0.68
		c-0.86-0.21-1.73-0.41-2.6-0.61c-0.08-0.02-0.16-0.03-0.24-0.05c-1.79-0.41-3.58-0.79-5.39-1.16c-1.84-0.37-3.68-0.73-5.54-1.06
		c-0.67-0.12-1.34-0.24-2.02-0.36c-0.1-0.02-0.2-0.03-0.3-0.05c-1.08-0.18-2.17-0.36-3.26-0.53c-12.71-2-25.73-3.03-39-3.03
		c-14.66,0-29.03,1.26-43,3.68c-117.58,20.39-207,122.91-207,246.32c0,123.76,89.93,226.51,208,246.49
		c13.65,2.31,27.69,3.51,42,3.51c13.27,0,26.29-1.03,39-3.03c25.48-3.98,49.69-11.82,72-22.9c82.38-40.89,139-125.87,139-224.07
		C1555,356.02,1554.99,355.05,1554.98,354.08z M1343.5,498.78c-8.89,2.44-18.12,4.06-27.6,4.79c-3.76,0.28-7.56,0.43-11.4,0.43
		c-81.46,0-147.5-66.04-147.5-147.5S1223.04,209,1304.5,209c5.12,0,10.18,0.26,15.16,0.77c8.16,0.83,16.13,2.33,23.84,4.45
		c62.54,17.1,108.5,74.32,108.5,142.28S1406.04,481.68,1343.5,498.78z"/>
	<path class="st7" d="M1367.34,209.77c-7.66-3.26-15.62-5.95-23.84-8c-12.48-3.12-25.55-4.77-39-4.77
		c-88.64,0-160.5,71.86-160.5,160.5S1215.86,518,1304.5,518c13.45,0,26.52-1.65,39-4.77c9.57-2.39,18.8-5.64,27.6-9.66
		c55.4-25.3,93.9-81.19,93.9-146.07C1465,291.16,1424.75,234.22,1367.34,209.77z M1343.5,498.78c-8.89,2.44-18.12,4.06-27.6,4.79
		c-3.76,0.28-7.56,0.43-11.4,0.43c-81.46,0-147.5-66.04-147.5-147.5S1223.04,209,1304.5,209c5.12,0,10.18,0.26,15.16,0.77
		c8.16,0.83,16.13,2.33,23.84,4.45c62.54,17.1,108.5,74.32,108.5,142.28S1406.04,481.68,1343.5,498.78z"/>
	<path class="st4" d="M1343.5,498.78c-8.89,2.44-18.12,4.06-27.6,4.79c-55.4-25.3-93.9-81.19-93.9-146.07
		c0-66.34,40.25-123.28,97.66-147.73c8.16,0.83,16.13,2.33,23.84,4.45c-62.54,17.1-108.5,74.32-108.5,142.28
		S1280.96,481.68,1343.5,498.78z"/>
</g>
</svg>
