<svg xmlns="http://www.w3.org/2000/svg" width="999.77" height="537.388" viewBox="0 0 999.77 537.388">
  <path id="Path_1" data-name="Path 1" d="M1129.54,315.722v76.949c-10.234,2.71-19.565,5.082-28.854,7.665-41.178,11.477-79.052,29.249-112.621,56.325-32.609,26.257-54.857,59.628-71.825,97.065-15.147,33.414-25.706,68.437-34.218,104.081-1.129,4.757-1.412,9.712-5.181,13.368-6.818,5.647-16.05,1.765-24.859,6.776-7.425,9.882-11.745,22.586-13.4,35.446,4.884,7.058,13.4,4.122,21.019,13.5L895.56,844.2a36.442,36.442,0,0,1-3.487,3.219,4.63,4.63,0,0,1-2.089,1.1c-6.494.353-12.987.847-19.481.847q-174.635,0-349.27-.268a24.454,24.454,0,0,1-6.945-1.779c-.734-.226-1.3-.946-4.051-3.077,10.249-40.486,24.337-80.859,35.418-117.548,7.369-9.331,15.683-6.028,21.584-12.422-2.555-12.451-6.112-25.41-12.818-35.926-8.625-5.407-17.377-2.329-27.555-6.141-19.678-41.474-32.058-88-51.567-131.057-9.529-6.2-19.565-3.331-29.108-4.051C373,531.591,300.523,522.119,232.538,492.347c-38.637-16.94-72.841-39.992-92.759-79.236q-4.425-8.7-8.075-17.759c-1.143-2.823-1.3-6.155-1.934-9.43,8.23-7.411,17.617-4.5,26.073-4.531,74.083-.268,148.223-.127,222.264-.2,8.78,0,17.744.988,27.965-2.357-4.334-21.175-8.47-41.516-12.592-61.449,7.538-7.581,16.107-4.969,23.843-5,49.662-.24,99.323-.127,148.985-.127q266.251,0,532.473.1C1108.366,312.418,1118.247,310.428,1129.54,315.722Zm-358.3,214.655c-3.938,1.073-5.76,1.045-6.776,1.934-7.3,6.352-14.822,7.058-21.513-.169-6.028-6.465-3.783-18.845,3.586-26.355,3.233-3.289,10.192-1.652,10.926-9.472-2.1-4.235-4.235-9.5-7.284-14.116-5.816-8.795-12.535-17.024-18.351-25.861-18.168-27.937-16.036-52.118,6.352-77.231a43.9,43.9,0,0,0,3.755-5.83c-1.906-.819-3.473-2.16-4.786-1.948-41.94,6.677-61.788,41.39-46.74,81.014,2.414,6.367,7.637,12.211,6.338,19.34-15.8,7.595-26.4-2.753-37.084-9.571-9.882,15.26-5.943,28.134,1.75,40.4,3.416,5.449,8.032,10.164,12.225,15.1,15.415,18.154,15.966,39.653,1.412,57.68-9.769,12.1-26.468,14.935-39.286,6.127C625.2,574.166,618.468,564.143,617.974,551c-.268-7.058.607-14.116.974-21.288-2.245.1-4.023-.325-5.223.325-30.492,16.3-41.291,54.419-24.224,86.59,14.3,26.934,37.987,41.658,66.856,48.6,22.3,5.364,44.523,10.46,58.245,33.287,7.341-5.647,11.491-13.34,19.41-15.923,8.47-2.823,16.94-5.548,25.41-8.583,6.846-2.47,13.919-4.687,20.271-8.145C816.1,646.1,821.745,594.1,790.773,565.2c-3.106,5.294-1.412,11.18-2.1,16.728a37.281,37.281,0,0,1-10.249,21.626c-5.534,5.731-12.3,8.7-19.763,5.647-8.1-3.289-8.907-11-8.244-18.605.819-9.246,5.971-16.672,10.9-24.167C767.933,556.224,772.831,545.326,771.236,530.377Z" transform="translate(-129.77 -311.978)" fill="#141414"/>
</svg>
